solid OpenSCAD_Model
  facet normal 0 -1 0
    outer loop
      vertex -69 0 -3.19891
      vertex -59.4 0 3.19891
      vertex -69 0 3.19891
    endloop
  endfacet
  facet normal 0 -1 -0
    outer loop
      vertex -59.4 0 3.19891
      vertex -69 0 -3.19891
      vertex -59.4 0 -3.19891
    endloop
  endfacet
  facet normal 0 -1 0
    outer loop
      vertex 59.4 0 -3.19891
      vertex 69 0 3.19891
      vertex 59.4 0 3.19891
    endloop
  endfacet
  facet normal 0 -1 -0
    outer loop
      vertex 69 0 3.19891
      vertex 59.4 0 -3.19891
      vertex 69 0 -3.19891
    endloop
  endfacet
  facet normal -0.139514 0.700153 0.700229
    outer loop
      vertex -69 19.6165 3.84776
      vertex -69.3244 19.8332 3.56645
      vertex -69.2168 19.5733 3.84776
    endloop
  endfacet
  facet normal -0.908666 -0.180936 -0.376283
    outer loop
      vertex -69.7832 0.675577 -3.56645
      vertex -70 1 -3.19891
      vertex -69.8478 1 -3.56645
    endloop
  endfacet
  facet normal -0.0758914 -0.381578 0.921216
    outer loop
      vertex -69 0.801088 4
      vertex -69.2168 0.476665 3.84776
      vertex -69 0.433546 3.84776
    endloop
  endfacet
  facet normal 0 -0.923878 -0.382688
    outer loop
      vertex -69 0.152242 -3.56645
      vertex -59.4 0 -3.19891
      vertex -69 0 -3.19891
    endloop
  endfacet
  facet normal 0 -0.923878 -0.382688
    outer loop
      vertex -59.4 0 -3.19891
      vertex -69 0.152242 -3.56645
      vertex -59.4 0.152242 -3.56645
    endloop
  endfacet
  facet normal 0 -0.923878 -0.382688
    outer loop
      vertex 59.4 0.152242 -3.56645
      vertex 69 0 -3.19891
      vertex 59.4 0 -3.19891
    endloop
  endfacet
  facet normal 0 -0.923878 -0.382688
    outer loop
      vertex 69 0 -3.19891
      vertex 59.4 0.152242 -3.56645
      vertex 69 0.152242 -3.56645
    endloop
  endfacet
  facet normal -0.555596 -0.831452 0
    outer loop
      vertex -69.7071 0.292893 -3.19891
      vertex -69.3827 0.0761213 3.19891
      vertex -69.7071 0.292893 3.19891
    endloop
  endfacet
  facet normal -0.555596 -0.831452 -0
    outer loop
      vertex -69.3827 0.0761213 3.19891
      vertex -69.7071 0.292893 -3.19891
      vertex -69.3827 0.0761213 -3.19891
    endloop
  endfacet
  facet normal -0.139438 0.700211 0.700186
    outer loop
      vertex -69 19.8978 3.56645
      vertex -69.3244 19.8332 3.56645
      vertex -69 19.6165 3.84776
    endloop
  endfacet
  facet normal 0 1 -0
    outer loop
      vertex 69 20.05 -3.19891
      vertex -69 20.05 3.19891
      vertex 69 20.05 3.19891
    endloop
  endfacet
  facet normal 0 1 0
    outer loop
      vertex -69 20.05 3.19891
      vertex 69 20.05 -3.19891
      vertex -69 20.05 -3.19891
    endloop
  endfacet
  facet normal 0.076023 0.381523 0.921228
    outer loop
      vertex 69 19.6165 3.84776
      vertex 69 19.2489 4
      vertex 69.2168 19.5733 3.84776
    endloop
  endfacet
  facet normal 0 -0.707114 0.707099
    outer loop
      vertex -69 0.152242 3.56645
      vertex -59.4 0.433546 3.84776
      vertex -69 0.433546 3.84776
    endloop
  endfacet
  facet normal 0 -0.707114 0.707099
    outer loop
      vertex -59.4 0.433546 3.84776
      vertex -69 0.152242 3.56645
      vertex -59.4 0.152242 3.56645
    endloop
  endfacet
  facet normal 0 -0.707114 0.707099
    outer loop
      vertex 59.4 0.152242 3.56645
      vertex 69 0.433546 3.84776
      vertex 59.4 0.433546 3.84776
    endloop
  endfacet
  facet normal 0 -0.707114 0.707099
    outer loop
      vertex 69 0.433546 3.84776
      vertex 59.4 0.152242 3.56645
      vertex 69 0.152242 3.56645
    endloop
  endfacet
  facet normal -0.195084 -0.980786 0
    outer loop
      vertex -69.3827 0.0761213 -3.19891
      vertex -69 0 3.19891
      vertex -69.3827 0.0761213 3.19891
    endloop
  endfacet
  facet normal -0.195084 -0.980786 -0
    outer loop
      vertex -69 0 3.19891
      vertex -69.3827 0.0761213 -3.19891
      vertex -69 0 -3.19891
    endloop
  endfacet
  facet normal -1 0 0
    outer loop
      vertex -70 1 -3.19891
      vertex -70 19.05 3.19891
      vertex -70 19.05 -3.19891
    endloop
  endfacet
  facet normal -1 -0 0
    outer loop
      vertex -70 19.05 3.19891
      vertex -70 1 -3.19891
      vertex -70 1 3.19891
    endloop
  endfacet
  facet normal -0.700136 -0.139528 0.700244
    outer loop
      vertex -69.5665 1 3.84776
      vertex -69.7832 0.675577 3.56645
      vertex -69.5233 0.783228 3.84776
    endloop
  endfacet
  facet normal 0 -0.382682 0.92388
    outer loop
      vertex -69 0.801088 4
      vertex -59.4 0.433546 3.84776
      vertex -59.4 0.801088 4
    endloop
  endfacet
  facet normal 0 -0.382682 0.92388
    outer loop
      vertex -59.4 0.433546 3.84776
      vertex -69 0.801088 4
      vertex -69 0.433546 3.84776
    endloop
  endfacet
  facet normal 0 -0.382682 0.92388
    outer loop
      vertex 59.4 0.801088 4
      vertex 69 0.433546 3.84776
      vertex 69 0.801088 4
    endloop
  endfacet
  facet normal 0 -0.382682 0.92388
    outer loop
      vertex 69 0.433546 3.84776
      vertex 59.4 0.801088 4
      vertex 59.4 0.433546 3.84776
    endloop
  endfacet
  facet normal -0.381522 -0.0760327 0.921227
    outer loop
      vertex -69.1989 1 4
      vertex -69.5665 1 3.84776
      vertex -69.5233 0.783228 3.84776
    endloop
  endfacet
  facet normal -0.38263 0 -0.923902
    outer loop
      vertex -69.5665 1 -3.84776
      vertex -69.1989 19.05 -4
      vertex -69.1989 1 -4
    endloop
  endfacet
  facet normal -0.38263 0 -0.923902
    outer loop
      vertex -69.1989 19.05 -4
      vertex -69.5665 1 -3.84776
      vertex -69.5665 19.05 -3.84776
    endloop
  endfacet
  facet normal -0.396592 -0.593686 -0.70018
    outer loop
      vertex -69.3244 0.216773 -3.56645
      vertex -69.5995 0.400544 -3.56645
      vertex -69.2168 0.476665 -3.84776
    endloop
  endfacet
  facet normal -0.908633 -0.18069 0.37648
    outer loop
      vertex -69.7832 0.675577 3.56645
      vertex -70 1 3.19891
      vertex -69.9239 0.617317 3.19891
    endloop
  endfacet
  facet normal -0 0.707119 0.707094
    outer loop
      vertex -69 19.8978 3.56645
      vertex 69 19.6165 3.84776
      vertex 69 19.8978 3.56645
    endloop
  endfacet
  facet normal 0 0.707119 0.707094
    outer loop
      vertex 69 19.6165 3.84776
      vertex -69 19.8978 3.56645
      vertex -69 19.6165 3.84776
    endloop
  endfacet
  facet normal 0.180681 0.908628 -0.376497
    outer loop
      vertex 69.3244 19.8332 -3.56645
      vertex 69 20.05 -3.19891
      vertex 69.3827 19.9739 -3.19891
    endloop
  endfacet
  facet normal 0.195032 0.980797 -0
    outer loop
      vertex 69.3827 19.9739 -3.19891
      vertex 69 20.05 3.19891
      vertex 69.3827 19.9739 3.19891
    endloop
  endfacet
  facet normal 0.195032 0.980797 0
    outer loop
      vertex 69 20.05 3.19891
      vertex 69.3827 19.9739 -3.19891
      vertex 69 20.05 -3.19891
    endloop
  endfacet
  facet normal 0 0.707119 -0.707094
    outer loop
      vertex -69 19.6165 -3.84776
      vertex 69 19.8978 -3.56645
      vertex 69 19.6165 -3.84776
    endloop
  endfacet
  facet normal 0 0.707119 -0.707094
    outer loop
      vertex 69 19.8978 -3.56645
      vertex -69 19.6165 -3.84776
      vertex -69 19.8978 -3.56645
    endloop
  endfacet
  facet normal -0.323618 0.215912 -0.921224
    outer loop
      vertex -69.1838 19.1261 -4
      vertex -69.5233 19.2668 -3.84776
      vertex -69.1407 19.1907 -4
    endloop
  endfacet
  facet normal 0.908633 -0.18069 -0.37648
    outer loop
      vertex 69.9239 0.617317 -3.19891
      vertex 69.7832 0.675577 -3.56645
      vertex 70 1 -3.19891
    endloop
  endfacet
  facet normal -0.923915 0 -0.382597
    outer loop
      vertex -69.8478 1 -3.56645
      vertex -70 19.05 -3.19891
      vertex -69.8478 19.05 -3.56645
    endloop
  endfacet
  facet normal -0.923915 -0 -0.382597
    outer loop
      vertex -70 19.05 -3.19891
      vertex -69.8478 1 -3.56645
      vertex -70 1 -3.19891
    endloop
  endfacet
  facet normal 0.0758914 -0.381578 -0.921216
    outer loop
      vertex 69.2168 0.476665 -3.84776
      vertex 69 0.433546 -3.84776
      vertex 69 0.801088 -4
    endloop
  endfacet
  facet normal 0.180737 -0.908658 0.376398
    outer loop
      vertex 69.3244 0.216773 3.56645
      vertex 69 0 3.19891
      vertex 69.3827 0.0761213 3.19891
    endloop
  endfacet
  facet normal 0.38263 0 0.923902
    outer loop
      vertex 69.1989 19.05 4
      vertex 69.5665 1 3.84776
      vertex 69.5665 19.05 3.84776
    endloop
  endfacet
  facet normal 0.38263 0 0.923902
    outer loop
      vertex 69.5665 1 3.84776
      vertex 69.1989 19.05 4
      vertex 69.1989 1 4
    endloop
  endfacet
  facet normal 0.908666 -0.180936 -0.376283
    outer loop
      vertex 70 1 -3.19891
      vertex 69.7832 0.675577 -3.56645
      vertex 69.8478 1 -3.56645
    endloop
  endfacet
  facet normal 0.707119 -0 0.707094
    outer loop
      vertex 69.5665 1 3.84776
      vertex 69.8478 19.05 3.56645
      vertex 69.5665 19.05 3.84776
    endloop
  endfacet
  facet normal 0.707119 0 0.707094
    outer loop
      vertex 69.8478 19.05 3.56645
      vertex 69.5665 1 3.84776
      vertex 69.8478 1 3.56645
    endloop
  endfacet
  facet normal 0.770454 -0.514601 0.37628
    outer loop
      vertex 69.7832 0.675577 3.56645
      vertex 69.5995 0.400544 3.56645
      vertex 69.7071 0.292893 3.19891
    endloop
  endfacet
  facet normal -0.396708 -0.593486 0.700284
    outer loop
      vertex -69.4005 0.599457 3.84776
      vertex -69.5995 0.400544 3.56645
      vertex -69.2168 0.476665 3.84776
    endloop
  endfacet
  facet normal -0.381708 -0.0757197 0.921176
    outer loop
      vertex -69.1989 1 4
      vertex -69.5233 0.783228 3.84776
      vertex -69.1838 0.92388 4
    endloop
  endfacet
  facet normal -0.075921 -0.38156 0.921221
    outer loop
      vertex -69.0761 0.81623 4
      vertex -69.2168 0.476665 3.84776
      vertex -69 0.801088 4
    endloop
  endfacet
  facet normal -0.707119 0 -0.707094
    outer loop
      vertex -69.5665 1 -3.84776
      vertex -69.8478 19.05 -3.56645
      vertex -69.5665 19.05 -3.84776
    endloop
  endfacet
  facet normal -0.707119 -0 -0.707094
    outer loop
      vertex -69.8478 19.05 -3.56645
      vertex -69.5665 1 -3.84776
      vertex -69.8478 1 -3.56645
    endloop
  endfacet
  facet normal -0.51473 -0.770296 0.376427
    outer loop
      vertex -69.3244 0.216773 3.56645
      vertex -69.7071 0.292893 3.19891
      vertex -69.3827 0.0761213 3.19891
    endloop
  endfacet
  facet normal -0.514644 -0.770408 0.376315
    outer loop
      vertex -69.5995 0.400544 3.56645
      vertex -69.7071 0.292893 3.19891
      vertex -69.3244 0.216773 3.56645
    endloop
  endfacet
  facet normal -0.180737 -0.908658 0.376398
    outer loop
      vertex -69.3244 0.216773 3.56645
      vertex -69.3827 0.0761213 3.19891
      vertex -69 0 3.19891
    endloop
  endfacet
  facet normal -0.381522 -0.0760327 -0.921227
    outer loop
      vertex -69.5233 0.783228 -3.84776
      vertex -69.5665 1 -3.84776
      vertex -69.1989 1 -4
    endloop
  endfacet
  facet normal -0.32356 -0.216101 -0.9212
    outer loop
      vertex -69.1407 0.859348 -4
      vertex -69.5233 0.783228 -3.84776
      vertex -69.1838 0.92388 -4
    endloop
  endfacet
  facet normal -0.707119 0 0.707094
    outer loop
      vertex -69.8478 1 3.56645
      vertex -69.5665 19.05 3.84776
      vertex -69.8478 19.05 3.56645
    endloop
  endfacet
  facet normal -0.707119 0 0.707094
    outer loop
      vertex -69.5665 19.05 3.84776
      vertex -69.8478 1 3.56645
      vertex -69.5665 1 3.84776
    endloop
  endfacet
  facet normal -0.514757 0.770237 -0.37651
    outer loop
      vertex -69.3244 19.8332 -3.56645
      vertex -69.7071 19.7571 -3.19891
      vertex -69.3827 19.9739 -3.19891
    endloop
  endfacet
  facet normal -0.770535 0.51453 -0.376212
    outer loop
      vertex -69.5995 19.6495 -3.56645
      vertex -69.7832 19.3744 -3.56645
      vertex -69.7071 19.7571 -3.19891
    endloop
  endfacet
  facet normal -0.180948 0.908664 -0.376282
    outer loop
      vertex -69 19.8978 -3.56645
      vertex -69.3244 19.8332 -3.56645
      vertex -69 20.05 -3.19891
    endloop
  endfacet
  facet normal 1 -0 0
    outer loop
      vertex 70 1 3.19891
      vertex 70 19.05 -3.19891
      vertex 70 19.05 3.19891
    endloop
  endfacet
  facet normal 1 0 0
    outer loop
      vertex 70 19.05 -3.19891
      vertex 70 1 3.19891
      vertex 70 1 -3.19891
    endloop
  endfacet
  facet normal 0.514757 0.770237 0.37651
    outer loop
      vertex 69.3827 19.9739 3.19891
      vertex 69.3244 19.8332 3.56645
      vertex 69.7071 19.7571 3.19891
    endloop
  endfacet
  facet normal -0.180681 0.908628 -0.376497
    outer loop
      vertex -69.3244 19.8332 -3.56645
      vertex -69.3827 19.9739 -3.19891
      vertex -69 20.05 -3.19891
    endloop
  endfacet
  facet normal -0.075921 -0.38156 -0.921221
    outer loop
      vertex -69 0.801088 -4
      vertex -69.2168 0.476665 -3.84776
      vertex -69.0761 0.81623 -4
    endloop
  endfacet
  facet normal -0.139269 -0.700238 -0.700194
    outer loop
      vertex -69 0.433546 -3.84776
      vertex -69.3244 0.216773 -3.56645
      vertex -69.2168 0.476665 -3.84776
    endloop
  endfacet
  facet normal 0.180754 -0.90866 0.376384
    outer loop
      vertex 69 0.152242 3.56645
      vertex 69 0 3.19891
      vertex 69.3244 0.216773 3.56645
    endloop
  endfacet
  facet normal 0.195084 -0.980786 0
    outer loop
      vertex 69 0 -3.19891
      vertex 69.3827 0.0761213 3.19891
      vertex 69 0 3.19891
    endloop
  endfacet
  facet normal 0.195084 -0.980786 0
    outer loop
      vertex 69.3827 0.0761213 3.19891
      vertex 69 0 -3.19891
      vertex 69.3827 0.0761213 -3.19891
    endloop
  endfacet
  facet normal 0.77027 -0.514741 0.376465
    outer loop
      vertex 69.7832 0.675577 3.56645
      vertex 69.7071 0.292893 3.19891
      vertex 69.9239 0.617317 3.19891
    endloop
  endfacet
  facet normal 0.831438 -0.555618 0
    outer loop
      vertex 69.7071 0.292893 3.19891
      vertex 69.9239 0.617317 -3.19891
      vertex 69.9239 0.617317 3.19891
    endloop
  endfacet
  facet normal 0.831438 -0.555618 0
    outer loop
      vertex 69.9239 0.617317 -3.19891
      vertex 69.7071 0.292893 3.19891
      vertex 69.7071 0.292893 -3.19891
    endloop
  endfacet
  facet normal 0.700136 -0.139528 -0.700244
    outer loop
      vertex 69.7832 0.675577 -3.56645
      vertex 69.5233 0.783228 -3.84776
      vertex 69.5665 1 -3.84776
    endloop
  endfacet
  facet normal 0.075921 -0.38156 -0.921221
    outer loop
      vertex 69.2168 0.476665 -3.84776
      vertex 69 0.801088 -4
      vertex 69.0761 0.81623 -4
    endloop
  endfacet
  facet normal 0.139269 -0.700238 0.700194
    outer loop
      vertex 69.2168 0.476665 3.84776
      vertex 69 0.433546 3.84776
      vertex 69.3244 0.216773 3.56645
    endloop
  endfacet
  facet normal -0.215954 -0.323546 0.921239
    outer loop
      vertex -69.1407 0.859348 4
      vertex -69.2168 0.476665 3.84776
      vertex -69.0761 0.81623 4
    endloop
  endfacet
  facet normal 0 0 1
    outer loop
      vertex 66 15 4
      vertex -59.4 11 4
      vertex 59.4 11 4
    endloop
  endfacet
  facet normal -0 0 1
    outer loop
      vertex -66 15 4
      vertex -59.4 11 4
      vertex 66 15 4
    endloop
  endfacet
  facet normal 0 0 1
    outer loop
      vertex -69.1989 1 4
      vertex -59.4 11 4
      vertex -66 15 4
    endloop
  endfacet
  facet normal 0 0 1
    outer loop
      vertex -66 16.05 4
      vertex -69.1989 19.05 4
      vertex -66 15 4
    endloop
  endfacet
  facet normal 0 0 1
    outer loop
      vertex -69.1989 1 4
      vertex -66 15 4
      vertex -69.1989 19.05 4
    endloop
  endfacet
  facet normal 0 0 1
    outer loop
      vertex -69.1989 19.05 4
      vertex -69 19.2489 4
      vertex -69.0761 19.2338 4
    endloop
  endfacet
  facet normal 0 0 1
    outer loop
      vertex -59.4 11 4
      vertex -69.1989 1 4
      vertex -59.4 0.801088 4
    endloop
  endfacet
  facet normal 0 0 1
    outer loop
      vertex -69.1989 19.05 4
      vertex -69.0761 19.2338 4
      vertex -69.1407 19.1907 4
    endloop
  endfacet
  facet normal 0 0 1
    outer loop
      vertex -59.4 0.801088 4
      vertex -69.1989 1 4
      vertex -69 0.801088 4
    endloop
  endfacet
  facet normal 0 0 1
    outer loop
      vertex -69.1989 19.05 4
      vertex -69.1407 19.1907 4
      vertex -69.1838 19.1261 4
    endloop
  endfacet
  facet normal 0 0 1
    outer loop
      vertex -69 0.801088 4
      vertex -69.1989 1 4
      vertex -69.0761 0.81623 4
    endloop
  endfacet
  facet normal 0 0 1
    outer loop
      vertex -69.0761 0.81623 4
      vertex -69.1989 1 4
      vertex -69.1407 0.859348 4
    endloop
  endfacet
  facet normal 0 0 1
    outer loop
      vertex -69.1407 0.859348 4
      vertex -69.1989 1 4
      vertex -69.1838 0.92388 4
    endloop
  endfacet
  facet normal 0 0 1
    outer loop
      vertex 69 19.2489 4
      vertex 69.1989 19.05 4
      vertex 69.1838 19.1261 4
    endloop
  endfacet
  facet normal 0 0 1
    outer loop
      vertex 69.1989 19.05 4
      vertex 66 15 4
      vertex 69.1989 1 4
    endloop
  endfacet
  facet normal 0 0 1
    outer loop
      vertex 69 19.2489 4
      vertex 69.1838 19.1261 4
      vertex 69.1407 19.1907 4
    endloop
  endfacet
  facet normal -0 0 1
    outer loop
      vertex 59.4 11 4
      vertex 69.1989 1 4
      vertex 66 15 4
    endloop
  endfacet
  facet normal 0 0 1
    outer loop
      vertex 69 19.2489 4
      vertex 69.1407 19.1907 4
      vertex 69.0761 19.2338 4
    endloop
  endfacet
  facet normal 0 0 1
    outer loop
      vertex 59.4 0.801088 4
      vertex 69.1989 1 4
      vertex 59.4 11 4
    endloop
  endfacet
  facet normal 0 0 1
    outer loop
      vertex 69.1989 19.05 4
      vertex 69 19.2489 4
      vertex 66 16.05 4
    endloop
  endfacet
  facet normal 0 0 1
    outer loop
      vertex 69.1838 0.92388 4
      vertex 69 0.801088 4
      vertex 69.1407 0.859348 4
    endloop
  endfacet
  facet normal 0 0 1
    outer loop
      vertex 69.1989 19.05 4
      vertex 66 16.05 4
      vertex 66 15 4
    endloop
  endfacet
  facet normal 0 0 1
    outer loop
      vertex 69 19.2489 4
      vertex -66 16.05 4
      vertex 66 16.05 4
    endloop
  endfacet
  facet normal -0 0 1
    outer loop
      vertex -69.1989 19.05 4
      vertex -66 16.05 4
      vertex -69 19.2489 4
    endloop
  endfacet
  facet normal -0 0 1
    outer loop
      vertex -69 19.2489 4
      vertex -66 16.05 4
      vertex 69 19.2489 4
    endloop
  endfacet
  facet normal 0 0 1
    outer loop
      vertex 69.1407 0.859348 4
      vertex 69 0.801088 4
      vertex 69.0761 0.81623 4
    endloop
  endfacet
  facet normal 0 0 1
    outer loop
      vertex 69.1989 1 4
      vertex 69 0.801088 4
      vertex 69.1838 0.92388 4
    endloop
  endfacet
  facet normal 0 0 1
    outer loop
      vertex 69.1989 1 4
      vertex 59.4 0.801088 4
      vertex 69 0.801088 4
    endloop
  endfacet
  facet normal -0.923915 0 0.382597
    outer loop
      vertex -70 1 3.19891
      vertex -69.8478 19.05 3.56645
      vertex -70 19.05 3.19891
    endloop
  endfacet
  facet normal -0.923915 0 0.382597
    outer loop
      vertex -69.8478 19.05 3.56645
      vertex -70 1 3.19891
      vertex -69.8478 1 3.56645
    endloop
  endfacet
  facet normal -0.77027 -0.514741 0.376465
    outer loop
      vertex -69.7832 0.675577 3.56645
      vertex -69.9239 0.617317 3.19891
      vertex -69.7071 0.292893 3.19891
    endloop
  endfacet
  facet normal -0.770454 -0.514601 0.37628
    outer loop
      vertex -69.5995 0.400544 3.56645
      vertex -69.7832 0.675577 3.56645
      vertex -69.7071 0.292893 3.19891
    endloop
  endfacet
  facet normal -0.77027 -0.514741 -0.376465
    outer loop
      vertex -69.7071 0.292893 -3.19891
      vertex -69.9239 0.617317 -3.19891
      vertex -69.7832 0.675577 -3.56645
    endloop
  endfacet
  facet normal -0.396592 -0.593686 0.70018
    outer loop
      vertex -69.2168 0.476665 3.84776
      vertex -69.5995 0.400544 3.56645
      vertex -69.3244 0.216773 3.56645
    endloop
  endfacet
  facet normal -0.139269 -0.700238 0.700194
    outer loop
      vertex -69.2168 0.476665 3.84776
      vertex -69.3244 0.216773 3.56645
      vertex -69 0.433546 3.84776
    endloop
  endfacet
  facet normal -0.215954 -0.323546 -0.921239
    outer loop
      vertex -69.0761 0.81623 -4
      vertex -69.2168 0.476665 -3.84776
      vertex -69.1407 0.859348 -4
    endloop
  endfacet
  facet normal -0.700212 -0.139428 -0.700187
    outer loop
      vertex -69.7832 0.675577 -3.56645
      vertex -69.8478 1 -3.56645
      vertex -69.5665 1 -3.84776
    endloop
  endfacet
  facet normal -0.700136 -0.139528 -0.700244
    outer loop
      vertex -69.5233 0.783228 -3.84776
      vertex -69.7832 0.675577 -3.56645
      vertex -69.5665 1 -3.84776
    endloop
  endfacet
  facet normal -0.381708 -0.0757197 -0.921176
    outer loop
      vertex -69.1838 0.92388 -4
      vertex -69.5233 0.783228 -3.84776
      vertex -69.1989 1 -4
    endloop
  endfacet
  facet normal 0 0 -1
    outer loop
      vertex -69.1989 1 -4
      vertex -59.4 0.801088 -4
      vertex -69 0.801088 -4
    endloop
  endfacet
  facet normal 0 0 -1
    outer loop
      vertex 69 0.801088 -4
      vertex 69.1989 1 -4
      vertex 69.1838 0.92388 -4
    endloop
  endfacet
  facet normal 0 0 -1
    outer loop
      vertex 69.1989 1 -4
      vertex 59.4 11 -4
      vertex 69.1989 19.05 -4
    endloop
  endfacet
  facet normal 0 0 -1
    outer loop
      vertex 69 0.801088 -4
      vertex 69.1838 0.92388 -4
      vertex 69.1407 0.859348 -4
    endloop
  endfacet
  facet normal 0 -0 -1
    outer loop
      vertex 69 19.2489 -4
      vertex 69.1989 19.05 -4
      vertex 59.4 11 -4
    endloop
  endfacet
  facet normal 0 0 -1
    outer loop
      vertex 69 0.801088 -4
      vertex 69.1407 0.859348 -4
      vertex 69.0761 0.81623 -4
    endloop
  endfacet
  facet normal 0 0 -1
    outer loop
      vertex 69.1989 19.05 -4
      vertex 69 19.2489 -4
      vertex 69.1838 19.1261 -4
    endloop
  endfacet
  facet normal 0 0 -1
    outer loop
      vertex 59.4 0.801088 -4
      vertex 69.1989 1 -4
      vertex 69 0.801088 -4
    endloop
  endfacet
  facet normal 0 0 -1
    outer loop
      vertex 69.1838 19.1261 -4
      vertex 69 19.2489 -4
      vertex 69.1407 19.1907 -4
    endloop
  endfacet
  facet normal -0 0 -1
    outer loop
      vertex 69.1989 1 -4
      vertex 59.4 0.801088 -4
      vertex 59.4 11 -4
    endloop
  endfacet
  facet normal 0 0 -1
    outer loop
      vertex 69.1407 19.1907 -4
      vertex 69 19.2489 -4
      vertex 69.0761 19.2338 -4
    endloop
  endfacet
  facet normal 0 0 -1
    outer loop
      vertex -59.4 11 -4
      vertex 69 19.2489 -4
      vertex 59.4 11 -4
    endloop
  endfacet
  facet normal 0 0 -1
    outer loop
      vertex -59.4 11 -4
      vertex -69 19.2489 -4
      vertex 69 19.2489 -4
    endloop
  endfacet
  facet normal 0 0 -1
    outer loop
      vertex -59.4 0.801088 -4
      vertex -69.1989 1 -4
      vertex -59.4 11 -4
    endloop
  endfacet
  facet normal 0 0 -1
    outer loop
      vertex -69.1989 1 -4
      vertex -69 0.801088 -4
      vertex -69.0761 0.81623 -4
    endloop
  endfacet
  facet normal 0 0 -1
    outer loop
      vertex -69.1989 19.05 -4
      vertex -59.4 11 -4
      vertex -69.1989 1 -4
    endloop
  endfacet
  facet normal 0 0 -1
    outer loop
      vertex -69.1989 1 -4
      vertex -69.0761 0.81623 -4
      vertex -69.1407 0.859348 -4
    endloop
  endfacet
  facet normal 0 0 -1
    outer loop
      vertex -59.4 11 -4
      vertex -69.1989 19.05 -4
      vertex -69 19.2489 -4
    endloop
  endfacet
  facet normal 0 0 -1
    outer loop
      vertex -69.1989 1 -4
      vertex -69.1407 0.859348 -4
      vertex -69.1838 0.92388 -4
    endloop
  endfacet
  facet normal 0 0 -1
    outer loop
      vertex -69 19.2489 -4
      vertex -69.1989 19.05 -4
      vertex -69.0761 19.2338 -4
    endloop
  endfacet
  facet normal 0 0 -1
    outer loop
      vertex -69.0761 19.2338 -4
      vertex -69.1989 19.05 -4
      vertex -69.1407 19.1907 -4
    endloop
  endfacet
  facet normal 0 0 -1
    outer loop
      vertex -69.1407 19.1907 -4
      vertex -69.1989 19.05 -4
      vertex -69.1838 19.1261 -4
    endloop
  endfacet
  facet normal -0.908628 0.180681 -0.376497
    outer loop
      vertex -69.7832 19.3744 -3.56645
      vertex -70 19.05 -3.19891
      vertex -69.9239 19.4327 -3.19891
    endloop
  endfacet
  facet normal -0.180681 0.908628 0.376497
    outer loop
      vertex -69 20.05 3.19891
      vertex -69.3827 19.9739 3.19891
      vertex -69.3244 19.8332 3.56645
    endloop
  endfacet
  facet normal 0.980797 0.195032 0
    outer loop
      vertex 70 19.05 3.19891
      vertex 69.9239 19.4327 -3.19891
      vertex 69.9239 19.4327 3.19891
    endloop
  endfacet
  facet normal 0.980797 0.195032 0
    outer loop
      vertex 69.9239 19.4327 -3.19891
      vertex 70 19.05 3.19891
      vertex 70 19.05 -3.19891
    endloop
  endfacet
  facet normal 0.139514 0.700153 0.700229
    outer loop
      vertex 69.3244 19.8332 3.56645
      vertex 69 19.6165 3.84776
      vertex 69.2168 19.5733 3.84776
    endloop
  endfacet
  facet normal 0 0.923915 0.382597
    outer loop
      vertex 69 20.05 3.19891
      vertex -69 19.8978 3.56645
      vertex 69 19.8978 3.56645
    endloop
  endfacet
  facet normal 0 0.923915 0.382597
    outer loop
      vertex -69 19.8978 3.56645
      vertex 69 20.05 3.19891
      vertex -69 20.05 3.19891
    endloop
  endfacet
  facet normal 0 0.38263 -0.923902
    outer loop
      vertex -69 19.2489 -4
      vertex 69 19.6165 -3.84776
      vertex 69 19.2489 -4
    endloop
  endfacet
  facet normal 0 0.38263 -0.923902
    outer loop
      vertex 69 19.6165 -3.84776
      vertex -69 19.2489 -4
      vertex -69 19.6165 -3.84776
    endloop
  endfacet
  facet normal 0.0757366 0.381692 -0.921181
    outer loop
      vertex 69.0761 19.2338 -4
      vertex 69 19.2489 -4
      vertex 69.2168 19.5733 -3.84776
    endloop
  endfacet
  facet normal 0.076023 0.381523 -0.921228
    outer loop
      vertex 69.2168 19.5733 -3.84776
      vertex 69 19.2489 -4
      vertex 69 19.6165 -3.84776
    endloop
  endfacet
  facet normal 0.180681 0.908628 0.376497
    outer loop
      vertex 69.3827 19.9739 3.19891
      vertex 69 20.05 3.19891
      vertex 69.3244 19.8332 3.56645
    endloop
  endfacet
  facet normal 0.0758914 -0.381578 0.921216
    outer loop
      vertex 69 0.801088 4
      vertex 69 0.433546 3.84776
      vertex 69.2168 0.476665 3.84776
    endloop
  endfacet
  facet normal -0.139291 -0.700221 0.700206
    outer loop
      vertex -69 0.433546 3.84776
      vertex -69.3244 0.216773 3.56645
      vertex -69 0.152242 3.56645
    endloop
  endfacet
  facet normal -0.180754 -0.90866 0.376384
    outer loop
      vertex -69 0.152242 3.56645
      vertex -69.3244 0.216773 3.56645
      vertex -69 0 3.19891
    endloop
  endfacet
  facet normal 0.51473 -0.770296 0.376427
    outer loop
      vertex 69.7071 0.292893 3.19891
      vertex 69.3244 0.216773 3.56645
      vertex 69.3827 0.0761213 3.19891
    endloop
  endfacet
  facet normal 0 -0.923878 0.382688
    outer loop
      vertex -69 0 3.19891
      vertex -59.4 0.152242 3.56645
      vertex -69 0.152242 3.56645
    endloop
  endfacet
  facet normal 0 -0.923878 0.382688
    outer loop
      vertex -59.4 0.152242 3.56645
      vertex -69 0 3.19891
      vertex -59.4 0 3.19891
    endloop
  endfacet
  facet normal 0 -0.923878 0.382688
    outer loop
      vertex 59.4 0 3.19891
      vertex 69 0.152242 3.56645
      vertex 59.4 0.152242 3.56645
    endloop
  endfacet
  facet normal 0 -0.923878 0.382688
    outer loop
      vertex 69 0.152242 3.56645
      vertex 59.4 0 3.19891
      vertex 69 0 3.19891
    endloop
  endfacet
  facet normal 0 -0.707114 -0.707099
    outer loop
      vertex -69 0.433546 -3.84776
      vertex -59.4 0.152242 -3.56645
      vertex -69 0.152242 -3.56645
    endloop
  endfacet
  facet normal 0 -0.707114 -0.707099
    outer loop
      vertex -59.4 0.152242 -3.56645
      vertex -69 0.433546 -3.84776
      vertex -59.4 0.433546 -3.84776
    endloop
  endfacet
  facet normal 0 -0.707114 -0.707099
    outer loop
      vertex 59.4 0.433546 -3.84776
      vertex 69 0.152242 -3.56645
      vertex 59.4 0.152242 -3.56645
    endloop
  endfacet
  facet normal 0 -0.707114 -0.707099
    outer loop
      vertex 69 0.152242 -3.56645
      vertex 59.4 0.433546 -3.84776
      vertex 69 0.433546 -3.84776
    endloop
  endfacet
  facet normal 0.139291 -0.700221 0.700206
    outer loop
      vertex 69 0.433546 3.84776
      vertex 69 0.152242 3.56645
      vertex 69.3244 0.216773 3.56645
    endloop
  endfacet
  facet normal 0.908633 -0.18069 0.37648
    outer loop
      vertex 70 1 3.19891
      vertex 69.7832 0.675577 3.56645
      vertex 69.9239 0.617317 3.19891
    endloop
  endfacet
  facet normal 0.323536 -0.216194 -0.921187
    outer loop
      vertex 69.4005 0.599457 -3.84776
      vertex 69.1407 0.859348 -4
      vertex 69.5233 0.783228 -3.84776
    endloop
  endfacet
  facet normal 0.980795 -0.19504 0
    outer loop
      vertex 69.9239 0.617317 3.19891
      vertex 70 1 -3.19891
      vertex 70 1 3.19891
    endloop
  endfacet
  facet normal 0.980795 -0.19504 0
    outer loop
      vertex 70 1 -3.19891
      vertex 69.9239 0.617317 3.19891
      vertex 69.9239 0.617317 -3.19891
    endloop
  endfacet
  facet normal 0.396592 -0.593686 -0.70018
    outer loop
      vertex 69.3244 0.216773 -3.56645
      vertex 69.2168 0.476665 -3.84776
      vertex 69.5995 0.400544 -3.56645
    endloop
  endfacet
  facet normal -0.216224 -0.323476 0.9212
    outer loop
      vertex -69.1407 0.859348 4
      vertex -69.4005 0.599457 3.84776
      vertex -69.2168 0.476665 3.84776
    endloop
  endfacet
  facet normal -0.593672 -0.396525 0.70023
    outer loop
      vertex -69.5233 0.783228 3.84776
      vertex -69.7832 0.675577 3.56645
      vertex -69.5995 0.400544 3.56645
    endloop
  endfacet
  facet normal -0 0.38263 0.923902
    outer loop
      vertex -69 19.6165 3.84776
      vertex 69 19.2489 4
      vertex 69 19.6165 3.84776
    endloop
  endfacet
  facet normal 0 0.38263 0.923902
    outer loop
      vertex 69 19.2489 4
      vertex -69 19.6165 3.84776
      vertex -69 19.2489 4
    endloop
  endfacet
  facet normal -0.216271 0.323526 0.921172
    outer loop
      vertex -69.2168 19.5733 3.84776
      vertex -69.4005 19.4505 3.84776
      vertex -69.1407 19.1907 4
    endloop
  endfacet
  facet normal -0.38263 0 0.923902
    outer loop
      vertex -69.5665 19.05 3.84776
      vertex -69.1989 1 4
      vertex -69.1989 19.05 4
    endloop
  endfacet
  facet normal -0.38263 0 0.923902
    outer loop
      vertex -69.1989 1 4
      vertex -69.5665 19.05 3.84776
      vertex -69.5665 1 3.84776
    endloop
  endfacet
  facet normal -0.593528 -0.396609 0.700304
    outer loop
      vertex -69.5233 0.783228 3.84776
      vertex -69.5995 0.400544 3.56645
      vertex -69.4005 0.599457 3.84776
    endloop
  endfacet
  facet normal -0.323536 -0.216194 0.921187
    outer loop
      vertex -69.1407 0.859348 4
      vertex -69.5233 0.783228 3.84776
      vertex -69.4005 0.599457 3.84776
    endloop
  endfacet
  facet normal -0.32356 -0.216101 0.9212
    outer loop
      vertex -69.1838 0.92388 4
      vertex -69.5233 0.783228 3.84776
      vertex -69.1407 0.859348 4
    endloop
  endfacet
  facet normal -0.700212 -0.139428 0.700187
    outer loop
      vertex -69.5665 1 3.84776
      vertex -69.8478 1 3.56645
      vertex -69.7832 0.675577 3.56645
    endloop
  endfacet
  facet normal -0.908666 -0.180936 0.376283
    outer loop
      vertex -69.8478 1 3.56645
      vertex -70 1 3.19891
      vertex -69.7832 0.675577 3.56645
    endloop
  endfacet
  facet normal -0.139291 -0.700221 -0.700206
    outer loop
      vertex -69 0.152242 -3.56645
      vertex -69.3244 0.216773 -3.56645
      vertex -69 0.433546 -3.84776
    endloop
  endfacet
  facet normal -0.180754 -0.90866 -0.376384
    outer loop
      vertex -69 0 -3.19891
      vertex -69.3244 0.216773 -3.56645
      vertex -69 0.152242 -3.56645
    endloop
  endfacet
  facet normal -0.514644 -0.770408 -0.376315
    outer loop
      vertex -69.3244 0.216773 -3.56645
      vertex -69.7071 0.292893 -3.19891
      vertex -69.5995 0.400544 -3.56645
    endloop
  endfacet
  facet normal -0.908633 -0.18069 -0.37648
    outer loop
      vertex -69.9239 0.617317 -3.19891
      vertex -70 1 -3.19891
      vertex -69.7832 0.675577 -3.56645
    endloop
  endfacet
  facet normal -0.770237 0.514757 -0.37651
    outer loop
      vertex -69.7832 19.3744 -3.56645
      vertex -69.9239 19.4327 -3.19891
      vertex -69.7071 19.7571 -3.19891
    endloop
  endfacet
  facet normal -0.51453 0.770535 -0.376212
    outer loop
      vertex -69.5995 19.6495 -3.56645
      vertex -69.7071 19.7571 -3.19891
      vertex -69.3244 19.8332 -3.56645
    endloop
  endfacet
  facet normal -0.555646 0.831419 0
    outer loop
      vertex -69.3827 19.9739 -3.19891
      vertex -69.7071 19.7571 3.19891
      vertex -69.3827 19.9739 3.19891
    endloop
  endfacet
  facet normal -0.555646 0.831419 0
    outer loop
      vertex -69.7071 19.7571 3.19891
      vertex -69.3827 19.9739 -3.19891
      vertex -69.7071 19.7571 -3.19891
    endloop
  endfacet
  facet normal -0.195032 0.980797 0
    outer loop
      vertex -69 20.05 -3.19891
      vertex -69.3827 19.9739 3.19891
      vertex -69 20.05 3.19891
    endloop
  endfacet
  facet normal -0.195032 0.980797 0
    outer loop
      vertex -69.3827 19.9739 3.19891
      vertex -69 20.05 -3.19891
      vertex -69.3827 19.9739 -3.19891
    endloop
  endfacet
  facet normal -0.381523 0.076023 -0.921228
    outer loop
      vertex -69.1989 19.05 -4
      vertex -69.5665 19.05 -3.84776
      vertex -69.5233 19.2668 -3.84776
    endloop
  endfacet
  facet normal -0.980797 0.195032 0
    outer loop
      vertex -70 19.05 -3.19891
      vertex -69.9239 19.4327 3.19891
      vertex -69.9239 19.4327 -3.19891
    endloop
  endfacet
  facet normal -0.980797 0.195032 0
    outer loop
      vertex -69.9239 19.4327 3.19891
      vertex -70 19.05 -3.19891
      vertex -70 19.05 3.19891
    endloop
  endfacet
  facet normal 0.139514 0.700153 -0.700229
    outer loop
      vertex 69.2168 19.5733 -3.84776
      vertex 69 19.6165 -3.84776
      vertex 69.3244 19.8332 -3.56645
    endloop
  endfacet
  facet normal 0.180948 0.908664 -0.376282
    outer loop
      vertex 69.3244 19.8332 -3.56645
      vertex 69 19.8978 -3.56645
      vertex 69 20.05 -3.19891
    endloop
  endfacet
  facet normal 0.396674 0.593396 0.70038
    outer loop
      vertex 69.5995 19.6495 3.56645
      vertex 69.2168 19.5733 3.84776
      vertex 69.4005 19.4505 3.84776
    endloop
  endfacet
  facet normal 0.923915 -0 0.382597
    outer loop
      vertex 69.8478 1 3.56645
      vertex 70 19.05 3.19891
      vertex 69.8478 19.05 3.56645
    endloop
  endfacet
  facet normal 0.923915 0 0.382597
    outer loop
      vertex 70 19.05 3.19891
      vertex 69.8478 1 3.56645
      vertex 70 1 3.19891
    endloop
  endfacet
  facet normal 0.707119 0 -0.707094
    outer loop
      vertex 69.8478 1 -3.56645
      vertex 69.5665 19.05 -3.84776
      vertex 69.8478 19.05 -3.56645
    endloop
  endfacet
  facet normal 0.707119 0 -0.707094
    outer loop
      vertex 69.5665 19.05 -3.84776
      vertex 69.8478 1 -3.56645
      vertex 69.5665 1 -3.84776
    endloop
  endfacet
  facet normal 0.908628 0.180681 0.376497
    outer loop
      vertex 69.9239 19.4327 3.19891
      vertex 69.7832 19.3744 3.56645
      vertex 70 19.05 3.19891
    endloop
  endfacet
  facet normal 0.323526 0.216271 0.921172
    outer loop
      vertex 69.4005 19.4505 3.84776
      vertex 69.1407 19.1907 4
      vertex 69.5233 19.2668 3.84776
    endloop
  endfacet
  facet normal 0.770535 0.51453 0.376212
    outer loop
      vertex 69.7071 19.7571 3.19891
      vertex 69.5995 19.6495 3.56645
      vertex 69.7832 19.3744 3.56645
    endloop
  endfacet
  facet normal -0.180948 0.908664 0.376282
    outer loop
      vertex -69 20.05 3.19891
      vertex -69.3244 19.8332 3.56645
      vertex -69 19.8978 3.56645
    endloop
  endfacet
  facet normal -0.514757 0.770237 0.37651
    outer loop
      vertex -69.3827 19.9739 3.19891
      vertex -69.7071 19.7571 3.19891
      vertex -69.3244 19.8332 3.56645
    endloop
  endfacet
  facet normal -0.593396 0.396674 -0.70038
    outer loop
      vertex -69.5233 19.2668 -3.84776
      vertex -69.5995 19.6495 -3.56645
      vertex -69.4005 19.4505 -3.84776
    endloop
  endfacet
  facet normal 0.139438 0.700211 -0.700186
    outer loop
      vertex 69.3244 19.8332 -3.56645
      vertex 69 19.6165 -3.84776
      vertex 69 19.8978 -3.56645
    endloop
  endfacet
  facet normal 0.323618 0.215912 -0.921224
    outer loop
      vertex 69.1838 19.1261 -4
      vertex 69.1407 19.1907 -4
      vertex 69.5233 19.2668 -3.84776
    endloop
  endfacet
  facet normal 0.700136 -0.139528 0.700244
    outer loop
      vertex 69.5665 1 3.84776
      vertex 69.5233 0.783228 3.84776
      vertex 69.7832 0.675577 3.56645
    endloop
  endfacet
  facet normal 0.180754 -0.90866 -0.376384
    outer loop
      vertex 69.3244 0.216773 -3.56645
      vertex 69 0 -3.19891
      vertex 69 0.152242 -3.56645
    endloop
  endfacet
  facet normal 0.139291 -0.700221 -0.700206
    outer loop
      vertex 69.3244 0.216773 -3.56645
      vertex 69 0.152242 -3.56645
      vertex 69 0.433546 -3.84776
    endloop
  endfacet
  facet normal 0.700212 -0.139428 0.700187
    outer loop
      vertex 69.8478 1 3.56645
      vertex 69.5665 1 3.84776
      vertex 69.7832 0.675577 3.56645
    endloop
  endfacet
  facet normal 0.908666 -0.180936 0.376283
    outer loop
      vertex 69.8478 1 3.56645
      vertex 69.7832 0.675577 3.56645
      vertex 70 1 3.19891
    endloop
  endfacet
  facet normal 0.216224 -0.323476 0.9212
    outer loop
      vertex 69.4005 0.599457 3.84776
      vertex 69.1407 0.859348 4
      vertex 69.2168 0.476665 3.84776
    endloop
  endfacet
  facet normal 0.514644 -0.770408 0.376315
    outer loop
      vertex 69.5995 0.400544 3.56645
      vertex 69.3244 0.216773 3.56645
      vertex 69.7071 0.292893 3.19891
    endloop
  endfacet
  facet normal 0.381708 -0.0757197 -0.921176
    outer loop
      vertex 69.5233 0.783228 -3.84776
      vertex 69.1838 0.92388 -4
      vertex 69.1989 1 -4
    endloop
  endfacet
  facet normal 0.215954 -0.323546 -0.921239
    outer loop
      vertex 69.2168 0.476665 -3.84776
      vertex 69.0761 0.81623 -4
      vertex 69.1407 0.859348 -4
    endloop
  endfacet
  facet normal -0.59374 0.396474 0.700201
    outer loop
      vertex -69.5995 19.6495 3.56645
      vertex -69.7832 19.3744 3.56645
      vertex -69.5233 19.2668 3.84776
    endloop
  endfacet
  facet normal -0.831419 0.555646 0
    outer loop
      vertex -69.9239 19.4327 -3.19891
      vertex -69.7071 19.7571 3.19891
      vertex -69.7071 19.7571 -3.19891
    endloop
  endfacet
  facet normal -0.831419 0.555646 0
    outer loop
      vertex -69.7071 19.7571 3.19891
      vertex -69.9239 19.4327 -3.19891
      vertex -69.9239 19.4327 3.19891
    endloop
  endfacet
  facet normal -0.700211 0.139438 0.700186
    outer loop
      vertex -69.7832 19.3744 3.56645
      vertex -69.8478 19.05 3.56645
      vertex -69.5665 19.05 3.84776
    endloop
  endfacet
  facet normal -0.908664 0.180948 0.376282
    outer loop
      vertex -69.7832 19.3744 3.56645
      vertex -70 19.05 3.19891
      vertex -69.8478 19.05 3.56645
    endloop
  endfacet
  facet normal -0.51473 -0.770296 -0.376427
    outer loop
      vertex -69.3827 0.0761213 -3.19891
      vertex -69.7071 0.292893 -3.19891
      vertex -69.3244 0.216773 -3.56645
    endloop
  endfacet
  facet normal -0.180737 -0.908658 -0.376398
    outer loop
      vertex -69 0 -3.19891
      vertex -69.3827 0.0761213 -3.19891
      vertex -69.3244 0.216773 -3.56645
    endloop
  endfacet
  facet normal -0.770454 -0.514601 -0.37628
    outer loop
      vertex -69.7071 0.292893 -3.19891
      vertex -69.7832 0.675577 -3.56645
      vertex -69.5995 0.400544 -3.56645
    endloop
  endfacet
  facet normal -0.396708 -0.593486 -0.700284
    outer loop
      vertex -69.2168 0.476665 -3.84776
      vertex -69.5995 0.400544 -3.56645
      vertex -69.4005 0.599457 -3.84776
    endloop
  endfacet
  facet normal -0.593672 -0.396525 -0.70023
    outer loop
      vertex -69.5995 0.400544 -3.56645
      vertex -69.7832 0.675577 -3.56645
      vertex -69.5233 0.783228 -3.84776
    endloop
  endfacet
  facet normal -0.216224 -0.323476 -0.9212
    outer loop
      vertex -69.2168 0.476665 -3.84776
      vertex -69.4005 0.599457 -3.84776
      vertex -69.1407 0.859348 -4
    endloop
  endfacet
  facet normal -0.831438 -0.555618 0
    outer loop
      vertex -69.7071 0.292893 -3.19891
      vertex -69.9239 0.617317 3.19891
      vertex -69.9239 0.617317 -3.19891
    endloop
  endfacet
  facet normal -0.831438 -0.555618 0
    outer loop
      vertex -69.9239 0.617317 3.19891
      vertex -69.7071 0.292893 -3.19891
      vertex -69.7071 0.292893 3.19891
    endloop
  endfacet
  facet normal -0.980795 -0.19504 0
    outer loop
      vertex -69.9239 0.617317 -3.19891
      vertex -70 1 3.19891
      vertex -70 1 -3.19891
    endloop
  endfacet
  facet normal -0.980795 -0.19504 0
    outer loop
      vertex -70 1 3.19891
      vertex -69.9239 0.617317 -3.19891
      vertex -69.9239 0.617317 3.19891
    endloop
  endfacet
  facet normal -0.700211 0.139438 -0.700186
    outer loop
      vertex -69.5665 19.05 -3.84776
      vertex -69.8478 19.05 -3.56645
      vertex -69.7832 19.3744 -3.56645
    endloop
  endfacet
  facet normal -0.908664 0.180948 -0.376282
    outer loop
      vertex -69.8478 19.05 -3.56645
      vertex -70 19.05 -3.19891
      vertex -69.7832 19.3744 -3.56645
    endloop
  endfacet
  facet normal 0 0.923915 -0.382597
    outer loop
      vertex 69 19.8978 -3.56645
      vertex -69 20.05 -3.19891
      vertex 69 20.05 -3.19891
    endloop
  endfacet
  facet normal 0 0.923915 -0.382597
    outer loop
      vertex -69 20.05 -3.19891
      vertex 69 19.8978 -3.56645
      vertex -69 19.8978 -3.56645
    endloop
  endfacet
  facet normal -0.700153 0.139514 -0.700229
    outer loop
      vertex -69.5665 19.05 -3.84776
      vertex -69.7832 19.3744 -3.56645
      vertex -69.5233 19.2668 -3.84776
    endloop
  endfacet
  facet normal 0.770237 0.514757 0.37651
    outer loop
      vertex 69.9239 19.4327 3.19891
      vertex 69.7071 19.7571 3.19891
      vertex 69.7832 19.3744 3.56645
    endloop
  endfacet
  facet normal 0.700212 -0.139428 -0.700187
    outer loop
      vertex 69.7832 0.675577 -3.56645
      vertex 69.5665 1 -3.84776
      vertex 69.8478 1 -3.56645
    endloop
  endfacet
  facet normal 0.59374 0.396474 -0.700201
    outer loop
      vertex 69.7832 19.3744 -3.56645
      vertex 69.5233 19.2668 -3.84776
      vertex 69.5995 19.6495 -3.56645
    endloop
  endfacet
  facet normal 0.59374 0.396474 0.700201
    outer loop
      vertex 69.5995 19.6495 3.56645
      vertex 69.5233 19.2668 3.84776
      vertex 69.7832 19.3744 3.56645
    endloop
  endfacet
  facet normal 0.593396 0.396674 0.70038
    outer loop
      vertex 69.5995 19.6495 3.56645
      vertex 69.4005 19.4505 3.84776
      vertex 69.5233 19.2668 3.84776
    endloop
  endfacet
  facet normal 0.323618 0.215912 0.921224
    outer loop
      vertex 69.5233 19.2668 3.84776
      vertex 69.1407 19.1907 4
      vertex 69.1838 19.1261 4
    endloop
  endfacet
  facet normal 0.908664 0.180948 0.376282
    outer loop
      vertex 70 19.05 3.19891
      vertex 69.7832 19.3744 3.56645
      vertex 69.8478 19.05 3.56645
    endloop
  endfacet
  facet normal 0.381523 0.076023 0.921228
    outer loop
      vertex 69.5233 19.2668 3.84776
      vertex 69.1989 19.05 4
      vertex 69.5665 19.05 3.84776
    endloop
  endfacet
  facet normal 0.700153 0.139514 0.700229
    outer loop
      vertex 69.7832 19.3744 3.56645
      vertex 69.5233 19.2668 3.84776
      vertex 69.5665 19.05 3.84776
    endloop
  endfacet
  facet normal 0.216271 0.323526 0.921172
    outer loop
      vertex 69.2168 19.5733 3.84776
      vertex 69.1407 19.1907 4
      vertex 69.4005 19.4505 3.84776
    endloop
  endfacet
  facet normal -0.51453 0.770535 0.376212
    outer loop
      vertex -69.3244 19.8332 3.56645
      vertex -69.7071 19.7571 3.19891
      vertex -69.5995 19.6495 3.56645
    endloop
  endfacet
  facet normal -0.770535 0.51453 0.376212
    outer loop
      vertex -69.7071 19.7571 3.19891
      vertex -69.7832 19.3744 3.56645
      vertex -69.5995 19.6495 3.56645
    endloop
  endfacet
  facet normal -0.139514 0.700153 -0.700229
    outer loop
      vertex -69.2168 19.5733 -3.84776
      vertex -69.3244 19.8332 -3.56645
      vertex -69 19.6165 -3.84776
    endloop
  endfacet
  facet normal 0.381523 0.076023 -0.921228
    outer loop
      vertex 69.5665 19.05 -3.84776
      vertex 69.1989 19.05 -4
      vertex 69.5233 19.2668 -3.84776
    endloop
  endfacet
  facet normal 0.908664 0.180948 -0.376282
    outer loop
      vertex 69.8478 19.05 -3.56645
      vertex 69.7832 19.3744 -3.56645
      vertex 70 19.05 -3.19891
    endloop
  endfacet
  facet normal 0.396474 0.59374 -0.700201
    outer loop
      vertex 69.5995 19.6495 -3.56645
      vertex 69.2168 19.5733 -3.84776
      vertex 69.3244 19.8332 -3.56645
    endloop
  endfacet
  facet normal 0.593396 0.396674 -0.70038
    outer loop
      vertex 69.5233 19.2668 -3.84776
      vertex 69.4005 19.4505 -3.84776
      vertex 69.5995 19.6495 -3.56645
    endloop
  endfacet
  facet normal 0.593672 -0.396525 0.70023
    outer loop
      vertex 69.7832 0.675577 3.56645
      vertex 69.5233 0.783228 3.84776
      vertex 69.5995 0.400544 3.56645
    endloop
  endfacet
  facet normal 0.075921 -0.38156 0.921221
    outer loop
      vertex 69.0761 0.81623 4
      vertex 69 0.801088 4
      vertex 69.2168 0.476665 3.84776
    endloop
  endfacet
  facet normal 0.381522 -0.0760327 0.921227
    outer loop
      vertex 69.5665 1 3.84776
      vertex 69.1989 1 4
      vertex 69.5233 0.783228 3.84776
    endloop
  endfacet
  facet normal 0.216224 -0.323476 -0.9212
    outer loop
      vertex 69.2168 0.476665 -3.84776
      vertex 69.1407 0.859348 -4
      vertex 69.4005 0.599457 -3.84776
    endloop
  endfacet
  facet normal 0.139269 -0.700238 -0.700194
    outer loop
      vertex 69.3244 0.216773 -3.56645
      vertex 69 0.433546 -3.84776
      vertex 69.2168 0.476665 -3.84776
    endloop
  endfacet
  facet normal 0.51473 -0.770296 -0.376427
    outer loop
      vertex 69.3827 0.0761213 -3.19891
      vertex 69.3244 0.216773 -3.56645
      vertex 69.7071 0.292893 -3.19891
    endloop
  endfacet
  facet normal 0.555596 -0.831452 0
    outer loop
      vertex 69.3827 0.0761213 -3.19891
      vertex 69.7071 0.292893 3.19891
      vertex 69.3827 0.0761213 3.19891
    endloop
  endfacet
  facet normal 0.555596 -0.831452 0
    outer loop
      vertex 69.7071 0.292893 3.19891
      vertex 69.3827 0.0761213 -3.19891
      vertex 69.7071 0.292893 -3.19891
    endloop
  endfacet
  facet normal 0.32356 -0.216101 -0.9212
    outer loop
      vertex 69.5233 0.783228 -3.84776
      vertex 69.1407 0.859348 -4
      vertex 69.1838 0.92388 -4
    endloop
  endfacet
  facet normal -0.215912 0.323618 0.921224
    outer loop
      vertex -69.0761 19.2338 4
      vertex -69.2168 19.5733 3.84776
      vertex -69.1407 19.1907 4
    endloop
  endfacet
  facet normal -0.908628 0.180681 0.376497
    outer loop
      vertex -69.9239 19.4327 3.19891
      vertex -70 19.05 3.19891
      vertex -69.7832 19.3744 3.56645
    endloop
  endfacet
  facet normal -0.770237 0.514757 0.37651
    outer loop
      vertex -69.7071 19.7571 3.19891
      vertex -69.9239 19.4327 3.19891
      vertex -69.7832 19.3744 3.56645
    endloop
  endfacet
  facet normal -0.381523 0.076023 0.921228
    outer loop
      vertex -69.5233 19.2668 3.84776
      vertex -69.5665 19.05 3.84776
      vertex -69.1989 19.05 4
    endloop
  endfacet
  facet normal -0.700153 0.139514 0.700229
    outer loop
      vertex -69.5233 19.2668 3.84776
      vertex -69.7832 19.3744 3.56645
      vertex -69.5665 19.05 3.84776
    endloop
  endfacet
  facet normal -0.0758914 -0.381578 -0.921216
    outer loop
      vertex -69 0.433546 -3.84776
      vertex -69.2168 0.476665 -3.84776
      vertex -69 0.801088 -4
    endloop
  endfacet
  facet normal 0 -0.382682 -0.92388
    outer loop
      vertex -69 0.433546 -3.84776
      vertex -59.4 0.801088 -4
      vertex -59.4 0.433546 -3.84776
    endloop
  endfacet
  facet normal -0 -0.382682 -0.92388
    outer loop
      vertex -59.4 0.801088 -4
      vertex -69 0.433546 -3.84776
      vertex -69 0.801088 -4
    endloop
  endfacet
  facet normal 0 -0.382682 -0.92388
    outer loop
      vertex 59.4 0.433546 -3.84776
      vertex 69 0.801088 -4
      vertex 69 0.433546 -3.84776
    endloop
  endfacet
  facet normal -0 -0.382682 -0.92388
    outer loop
      vertex 69 0.801088 -4
      vertex 59.4 0.433546 -3.84776
      vertex 59.4 0.801088 -4
    endloop
  endfacet
  facet normal -0.593528 -0.396609 -0.700304
    outer loop
      vertex -69.4005 0.599457 -3.84776
      vertex -69.5995 0.400544 -3.56645
      vertex -69.5233 0.783228 -3.84776
    endloop
  endfacet
  facet normal -0.323536 -0.216194 -0.921187
    outer loop
      vertex -69.4005 0.599457 -3.84776
      vertex -69.5233 0.783228 -3.84776
      vertex -69.1407 0.859348 -4
    endloop
  endfacet
  facet normal -0.0757366 0.381692 -0.921181
    outer loop
      vertex -69.0761 19.2338 -4
      vertex -69.2168 19.5733 -3.84776
      vertex -69 19.2489 -4
    endloop
  endfacet
  facet normal -0.381692 0.0757366 -0.921181
    outer loop
      vertex -69.1989 19.05 -4
      vertex -69.5233 19.2668 -3.84776
      vertex -69.1838 19.1261 -4
    endloop
  endfacet
  facet normal -0.076023 0.381523 -0.921228
    outer loop
      vertex -69 19.2489 -4
      vertex -69.2168 19.5733 -3.84776
      vertex -69 19.6165 -3.84776
    endloop
  endfacet
  facet normal -0.59374 0.396474 -0.700201
    outer loop
      vertex -69.5233 19.2668 -3.84776
      vertex -69.7832 19.3744 -3.56645
      vertex -69.5995 19.6495 -3.56645
    endloop
  endfacet
  facet normal -0.139438 0.700211 -0.700186
    outer loop
      vertex -69 19.6165 -3.84776
      vertex -69.3244 19.8332 -3.56645
      vertex -69 19.8978 -3.56645
    endloop
  endfacet
  facet normal 0.180948 0.908664 0.376282
    outer loop
      vertex 69 20.05 3.19891
      vertex 69 19.8978 3.56645
      vertex 69.3244 19.8332 3.56645
    endloop
  endfacet
  facet normal 0.139438 0.700211 0.700186
    outer loop
      vertex 69 19.8978 3.56645
      vertex 69 19.6165 3.84776
      vertex 69.3244 19.8332 3.56645
    endloop
  endfacet
  facet normal 0.77027 -0.514741 -0.376465
    outer loop
      vertex 69.9239 0.617317 -3.19891
      vertex 69.7071 0.292893 -3.19891
      vertex 69.7832 0.675577 -3.56645
    endloop
  endfacet
  facet normal 0.593672 -0.396525 -0.70023
    outer loop
      vertex 69.5995 0.400544 -3.56645
      vertex 69.5233 0.783228 -3.84776
      vertex 69.7832 0.675577 -3.56645
    endloop
  endfacet
  facet normal 0.700211 0.139438 0.700186
    outer loop
      vertex 69.7832 19.3744 3.56645
      vertex 69.5665 19.05 3.84776
      vertex 69.8478 19.05 3.56645
    endloop
  endfacet
  facet normal 0.514757 0.770237 -0.37651
    outer loop
      vertex 69.7071 19.7571 -3.19891
      vertex 69.3244 19.8332 -3.56645
      vertex 69.3827 19.9739 -3.19891
    endloop
  endfacet
  facet normal 0.381692 0.0757366 0.921181
    outer loop
      vertex 69.5233 19.2668 3.84776
      vertex 69.1838 19.1261 4
      vertex 69.1989 19.05 4
    endloop
  endfacet
  facet normal 0.215912 0.323618 0.921224
    outer loop
      vertex 69.2168 19.5733 3.84776
      vertex 69.0761 19.2338 4
      vertex 69.1407 19.1907 4
    endloop
  endfacet
  facet normal 0.0757366 0.381692 0.921181
    outer loop
      vertex 69.2168 19.5733 3.84776
      vertex 69 19.2489 4
      vertex 69.0761 19.2338 4
    endloop
  endfacet
  facet normal -0.396674 0.593396 0.70038
    outer loop
      vertex -69.2168 19.5733 3.84776
      vertex -69.5995 19.6495 3.56645
      vertex -69.4005 19.4505 3.84776
    endloop
  endfacet
  facet normal -0.396474 0.59374 0.700201
    outer loop
      vertex -69.3244 19.8332 3.56645
      vertex -69.5995 19.6495 3.56645
      vertex -69.2168 19.5733 3.84776
    endloop
  endfacet
  facet normal 0.215912 0.323618 -0.921224
    outer loop
      vertex 69.1407 19.1907 -4
      vertex 69.0761 19.2338 -4
      vertex 69.2168 19.5733 -3.84776
    endloop
  endfacet
  facet normal 0.381692 0.0757366 -0.921181
    outer loop
      vertex 69.1989 19.05 -4
      vertex 69.1838 19.1261 -4
      vertex 69.5233 19.2668 -3.84776
    endloop
  endfacet
  facet normal 0.396674 0.593396 -0.70038
    outer loop
      vertex 69.4005 19.4505 -3.84776
      vertex 69.2168 19.5733 -3.84776
      vertex 69.5995 19.6495 -3.56645
    endloop
  endfacet
  facet normal 0.555646 0.831419 -0
    outer loop
      vertex 69.7071 19.7571 -3.19891
      vertex 69.3827 19.9739 3.19891
      vertex 69.7071 19.7571 3.19891
    endloop
  endfacet
  facet normal 0.555646 0.831419 0
    outer loop
      vertex 69.3827 19.9739 3.19891
      vertex 69.7071 19.7571 -3.19891
      vertex 69.3827 19.9739 -3.19891
    endloop
  endfacet
  facet normal 0.908628 0.180681 -0.376497
    outer loop
      vertex 70 19.05 -3.19891
      vertex 69.7832 19.3744 -3.56645
      vertex 69.9239 19.4327 -3.19891
    endloop
  endfacet
  facet normal 0.923915 0 -0.382597
    outer loop
      vertex 70 1 -3.19891
      vertex 69.8478 19.05 -3.56645
      vertex 70 19.05 -3.19891
    endloop
  endfacet
  facet normal 0.923915 0 -0.382597
    outer loop
      vertex 69.8478 19.05 -3.56645
      vertex 70 1 -3.19891
      vertex 69.8478 1 -3.56645
    endloop
  endfacet
  facet normal 0.381522 -0.0760327 -0.921227
    outer loop
      vertex 69.5233 0.783228 -3.84776
      vertex 69.1989 1 -4
      vertex 69.5665 1 -3.84776
    endloop
  endfacet
  facet normal 0.38263 0 -0.923902
    outer loop
      vertex 69.1989 1 -4
      vertex 69.5665 19.05 -3.84776
      vertex 69.5665 1 -3.84776
    endloop
  endfacet
  facet normal 0.38263 0 -0.923902
    outer loop
      vertex 69.5665 19.05 -3.84776
      vertex 69.1989 1 -4
      vertex 69.1989 19.05 -4
    endloop
  endfacet
  facet normal 0.831419 0.555646 0
    outer loop
      vertex 69.9239 19.4327 3.19891
      vertex 69.7071 19.7571 -3.19891
      vertex 69.7071 19.7571 3.19891
    endloop
  endfacet
  facet normal 0.831419 0.555646 0
    outer loop
      vertex 69.7071 19.7571 -3.19891
      vertex 69.9239 19.4327 3.19891
      vertex 69.9239 19.4327 -3.19891
    endloop
  endfacet
  facet normal 0.51453 0.770535 -0.376212
    outer loop
      vertex 69.5995 19.6495 -3.56645
      vertex 69.3244 19.8332 -3.56645
      vertex 69.7071 19.7571 -3.19891
    endloop
  endfacet
  facet normal 0.396708 -0.593486 0.700284
    outer loop
      vertex 69.4005 0.599457 3.84776
      vertex 69.2168 0.476665 3.84776
      vertex 69.5995 0.400544 3.56645
    endloop
  endfacet
  facet normal 0.396592 -0.593686 0.70018
    outer loop
      vertex 69.5995 0.400544 3.56645
      vertex 69.2168 0.476665 3.84776
      vertex 69.3244 0.216773 3.56645
    endloop
  endfacet
  facet normal 0.215954 -0.323546 0.921239
    outer loop
      vertex 69.1407 0.859348 4
      vertex 69.0761 0.81623 4
      vertex 69.2168 0.476665 3.84776
    endloop
  endfacet
  facet normal 0.593528 -0.396609 -0.700304
    outer loop
      vertex 69.5995 0.400544 -3.56645
      vertex 69.4005 0.599457 -3.84776
      vertex 69.5233 0.783228 -3.84776
    endloop
  endfacet
  facet normal 0.396708 -0.593486 -0.700284
    outer loop
      vertex 69.5995 0.400544 -3.56645
      vertex 69.2168 0.476665 -3.84776
      vertex 69.4005 0.599457 -3.84776
    endloop
  endfacet
  facet normal 0.180737 -0.908658 -0.376398
    outer loop
      vertex 69.3827 0.0761213 -3.19891
      vertex 69 0 -3.19891
      vertex 69.3244 0.216773 -3.56645
    endloop
  endfacet
  facet normal -0.215912 0.323618 -0.921224
    outer loop
      vertex -69.1407 19.1907 -4
      vertex -69.2168 19.5733 -3.84776
      vertex -69.0761 19.2338 -4
    endloop
  endfacet
  facet normal -0.396674 0.593396 -0.70038
    outer loop
      vertex -69.4005 19.4505 -3.84776
      vertex -69.5995 19.6495 -3.56645
      vertex -69.2168 19.5733 -3.84776
    endloop
  endfacet
  facet normal -0.396474 0.59374 -0.700201
    outer loop
      vertex -69.2168 19.5733 -3.84776
      vertex -69.5995 19.6495 -3.56645
      vertex -69.3244 19.8332 -3.56645
    endloop
  endfacet
  facet normal 0.51453 0.770535 0.376212
    outer loop
      vertex 69.7071 19.7571 3.19891
      vertex 69.3244 19.8332 3.56645
      vertex 69.5995 19.6495 3.56645
    endloop
  endfacet
  facet normal 0.396474 0.59374 0.700201
    outer loop
      vertex 69.3244 19.8332 3.56645
      vertex 69.2168 19.5733 3.84776
      vertex 69.5995 19.6495 3.56645
    endloop
  endfacet
  facet normal -0.0757366 0.381692 0.921181
    outer loop
      vertex -69 19.2489 4
      vertex -69.2168 19.5733 3.84776
      vertex -69.0761 19.2338 4
    endloop
  endfacet
  facet normal -0.076023 0.381523 0.921228
    outer loop
      vertex -69 19.6165 3.84776
      vertex -69.2168 19.5733 3.84776
      vertex -69 19.2489 4
    endloop
  endfacet
  facet normal -0.381692 0.0757366 0.921181
    outer loop
      vertex -69.1838 19.1261 4
      vertex -69.5233 19.2668 3.84776
      vertex -69.1989 19.05 4
    endloop
  endfacet
  facet normal -0.323618 0.215912 0.921224
    outer loop
      vertex -69.1407 19.1907 4
      vertex -69.5233 19.2668 3.84776
      vertex -69.1838 19.1261 4
    endloop
  endfacet
  facet normal 0.216271 0.323526 -0.921172
    outer loop
      vertex 69.4005 19.4505 -3.84776
      vertex 69.1407 19.1907 -4
      vertex 69.2168 19.5733 -3.84776
    endloop
  endfacet
  facet normal 0.323526 0.216271 -0.921172
    outer loop
      vertex 69.5233 19.2668 -3.84776
      vertex 69.1407 19.1907 -4
      vertex 69.4005 19.4505 -3.84776
    endloop
  endfacet
  facet normal 0.770535 0.51453 -0.376212
    outer loop
      vertex 69.7832 19.3744 -3.56645
      vertex 69.5995 19.6495 -3.56645
      vertex 69.7071 19.7571 -3.19891
    endloop
  endfacet
  facet normal 0.770237 0.514757 -0.37651
    outer loop
      vertex 69.7832 19.3744 -3.56645
      vertex 69.7071 19.7571 -3.19891
      vertex 69.9239 19.4327 -3.19891
    endloop
  endfacet
  facet normal 0.381708 -0.0757197 0.921176
    outer loop
      vertex 69.1989 1 4
      vertex 69.1838 0.92388 4
      vertex 69.5233 0.783228 3.84776
    endloop
  endfacet
  facet normal 0.32356 -0.216101 0.9212
    outer loop
      vertex 69.1838 0.92388 4
      vertex 69.1407 0.859348 4
      vertex 69.5233 0.783228 3.84776
    endloop
  endfacet
  facet normal 0.770454 -0.514601 -0.37628
    outer loop
      vertex 69.7071 0.292893 -3.19891
      vertex 69.5995 0.400544 -3.56645
      vertex 69.7832 0.675577 -3.56645
    endloop
  endfacet
  facet normal 0.514644 -0.770408 -0.376315
    outer loop
      vertex 69.7071 0.292893 -3.19891
      vertex 69.3244 0.216773 -3.56645
      vertex 69.5995 0.400544 -3.56645
    endloop
  endfacet
  facet normal -0.216271 0.323526 -0.921172
    outer loop
      vertex -69.1407 19.1907 -4
      vertex -69.4005 19.4505 -3.84776
      vertex -69.2168 19.5733 -3.84776
    endloop
  endfacet
  facet normal -0.323526 0.216271 -0.921172
    outer loop
      vertex -69.1407 19.1907 -4
      vertex -69.5233 19.2668 -3.84776
      vertex -69.4005 19.4505 -3.84776
    endloop
  endfacet
  facet normal -0.593396 0.396674 0.70038
    outer loop
      vertex -69.4005 19.4505 3.84776
      vertex -69.5995 19.6495 3.56645
      vertex -69.5233 19.2668 3.84776
    endloop
  endfacet
  facet normal -0.323526 0.216271 0.921172
    outer loop
      vertex -69.4005 19.4505 3.84776
      vertex -69.5233 19.2668 3.84776
      vertex -69.1407 19.1907 4
    endloop
  endfacet
  facet normal 0.700211 0.139438 -0.700186
    outer loop
      vertex 69.8478 19.05 -3.56645
      vertex 69.5665 19.05 -3.84776
      vertex 69.7832 19.3744 -3.56645
    endloop
  endfacet
  facet normal 0.700153 0.139514 -0.700229
    outer loop
      vertex 69.5665 19.05 -3.84776
      vertex 69.5233 19.2668 -3.84776
      vertex 69.7832 19.3744 -3.56645
    endloop
  endfacet
  facet normal 0.593528 -0.396609 0.700304
    outer loop
      vertex 69.5233 0.783228 3.84776
      vertex 69.4005 0.599457 3.84776
      vertex 69.5995 0.400544 3.56645
    endloop
  endfacet
  facet normal 0.323536 -0.216194 0.921187
    outer loop
      vertex 69.5233 0.783228 3.84776
      vertex 69.1407 0.859348 4
      vertex 69.4005 0.599457 3.84776
    endloop
  endfacet
  facet normal 1 -0 0
    outer loop
      vertex -59.4 0.801088 4
      vertex -59.4 11 -4
      vertex -59.4 11 4
    endloop
  endfacet
  facet normal 1 0 0
    outer loop
      vertex -59.4 0.801088 4
      vertex -59.4 0.801088 -4
      vertex -59.4 11 -4
    endloop
  endfacet
  facet normal 1 0 0
    outer loop
      vertex -59.4 0 3.19891
      vertex -59.4 0.801088 4
      vertex -59.4 0.433546 3.84776
    endloop
  endfacet
  facet normal 1 0 0
    outer loop
      vertex -59.4 0.801088 4
      vertex -59.4 0 3.19891
      vertex -59.4 0.801088 -4
    endloop
  endfacet
  facet normal 1 0 0
    outer loop
      vertex -59.4 0 3.19891
      vertex -59.4 0.433546 3.84776
      vertex -59.4 0.152242 3.56645
    endloop
  endfacet
  facet normal 1 -0 0
    outer loop
      vertex -59.4 0 -3.19891
      vertex -59.4 0.801088 -4
      vertex -59.4 0 3.19891
    endloop
  endfacet
  facet normal 1 0 0
    outer loop
      vertex -59.4 0.801088 -4
      vertex -59.4 0 -3.19891
      vertex -59.4 0.433546 -3.84776
    endloop
  endfacet
  facet normal 1 0 0
    outer loop
      vertex -59.4 0.433546 -3.84776
      vertex -59.4 0 -3.19891
      vertex -59.4 0.152242 -3.56645
    endloop
  endfacet
  facet normal -1 0 0
    outer loop
      vertex 59.4 0.801088 -4
      vertex 59.4 11 4
      vertex 59.4 11 -4
    endloop
  endfacet
  facet normal -1 0 0
    outer loop
      vertex 59.4 0.801088 -4
      vertex 59.4 0.801088 4
      vertex 59.4 11 4
    endloop
  endfacet
  facet normal -1 0 0
    outer loop
      vertex 59.4 0 -3.19891
      vertex 59.4 0.801088 -4
      vertex 59.4 0.433546 -3.84776
    endloop
  endfacet
  facet normal -1 0 0
    outer loop
      vertex 59.4 0.801088 -4
      vertex 59.4 0 -3.19891
      vertex 59.4 0.801088 4
    endloop
  endfacet
  facet normal -1 0 0
    outer loop
      vertex 59.4 0 -3.19891
      vertex 59.4 0.433546 -3.84776
      vertex 59.4 0.152242 -3.56645
    endloop
  endfacet
  facet normal -1 0 0
    outer loop
      vertex 59.4 0 3.19891
      vertex 59.4 0.801088 4
      vertex 59.4 0 -3.19891
    endloop
  endfacet
  facet normal -1 0 0
    outer loop
      vertex 59.4 0.801088 4
      vertex 59.4 0 3.19891
      vertex 59.4 0.433546 3.84776
    endloop
  endfacet
  facet normal -1 0 0
    outer loop
      vertex 59.4 0.433546 3.84776
      vertex 59.4 0 3.19891
      vertex 59.4 0.152242 3.56645
    endloop
  endfacet
  facet normal 0 -1 0
    outer loop
      vertex -59.4 11 -4
      vertex 59.4 11 4
      vertex -59.4 11 4
    endloop
  endfacet
  facet normal 0 -1 -0
    outer loop
      vertex 59.4 11 4
      vertex -59.4 11 -4
      vertex 59.4 11 -4
    endloop
  endfacet
  facet normal 1 -0 0
    outer loop
      vertex -66 15 4
      vertex -66 16.05 0
      vertex -66 16.05 4
    endloop
  endfacet
  facet normal 1 0 0
    outer loop
      vertex -66 16.05 0
      vertex -66 15 4
      vertex -66 15 0
    endloop
  endfacet
  facet normal -1 0 0
    outer loop
      vertex 66 15 0
      vertex 66 16.05 4
      vertex 66 16.05 0
    endloop
  endfacet
  facet normal -1 -0 0
    outer loop
      vertex 66 16.05 4
      vertex 66 15 0
      vertex 66 15 4
    endloop
  endfacet
  facet normal 0 -1 0
    outer loop
      vertex -66 16.05 0
      vertex 66 16.05 4
      vertex -66 16.05 4
    endloop
  endfacet
  facet normal 0 -1 -0
    outer loop
      vertex 66 16.05 4
      vertex -66 16.05 0
      vertex 66 16.05 0
    endloop
  endfacet
  facet normal -0 0 1
    outer loop
      vertex -66 16.05 0
      vertex 66 15 0
      vertex 66 16.05 0
    endloop
  endfacet
  facet normal 0 0 1
    outer loop
      vertex 66 15 0
      vertex -66 16.05 0
      vertex -66 15 0
    endloop
  endfacet
  facet normal 0 1 -0
    outer loop
      vertex 66 15 0
      vertex -66 15 4
      vertex 66 15 4
    endloop
  endfacet
  facet normal 0 1 0
    outer loop
      vertex -66 15 4
      vertex 66 15 0
      vertex -66 15 0
    endloop
  endfacet
endsolid OpenSCAD_Model
